<svg width="256" height="256" viewBox="0 0 256 256" xmlns="http://www.w3.org/2000/svg">
<g clip-path="url(#clip0_3_160)">
<path fill-rule="evenodd" clip-rule="evenodd" d="M152.525 -0.000244141H152.545V0.0201263L217.98 65.4546H218V203.68C198.104 190.829 185.021 157.434 186.954 119.001C187.758 103.006 191.064 88.139 196.169 75.4547H174.861C170.457 88.5447 167.735 102.976 166.979 117.997C165.612 145.167 170.84 171.064 181.438 191.093C189.417 206.172 201.705 219.91 218 225.997V246.003C213.978 242.457 209.597 239.078 204.988 235.878C182.706 220.41 151.287 206.515 115.998 197.06C110.042 195.464 104.118 194.032 98.2546 192.766C95.6655 183.607 87.245 176.895 77.2568 176.895C65.207 176.895 55.4386 186.664 55.4386 198.714C55.4386 210.763 65.2069 220.532 77.2568 220.532C84.1386 220.532 90.2763 217.346 94.2752 212.368C99.7219 213.548 105.246 214.884 110.822 216.378C146.66 225.981 177.398 240.174 197.331 255H43.0001C40.2386 255 38.0001 252.761 38.0001 250V175.848C46.093 174.535 54.1619 172.305 61.9755 169.375C91.6614 158.24 121.885 135.771 146.668 105.34C154.533 95.6828 161.501 85.6513 167.507 75.4546C160.209 75.4436 153.643 72.3052 149.08 67.3079C143.888 75.9048 137.906 84.427 131.16 92.7103C103.1 127.165 68.3161 149.511 38.0001 155.549V4.99975C38.0001 2.23833 40.2386 -0.000244141 43.0001 -0.000244141H140.086H152.525ZM152.545 12.4591V50.4546C152.545 53.1319 153.247 55.6453 154.476 57.8211C154.673 58.1701 154.884 58.5104 155.107 58.8413C157.803 62.8313 162.368 65.4546 167.545 65.4546L173.062 65.4547H178.665H200.802L205.541 65.4547L152.545 12.4591Z"/>
</g>
<defs>
<clipPath id="clip0_3_160">
<rect width="256" height="256" fill="white"/>
</clipPath>
</defs>
</svg>
